<mxfile host="app.diagrams.net" agent="Mozilla/5.0 (Windows NT 10.0; Win64; x64) AppleWebKit/537.36 (KHTML, like Gecko) Chrome/133.0.0.0 Safari/537.36" version="26.0.14">
  <diagram name="Page-1" id="ghwC-3nxy7shHa-Ds6c1">
    <mxGraphModel dx="2140" dy="557" grid="1" gridSize="10" guides="1" tooltips="1" connect="1" arrows="1" fold="1" page="1" pageScale="1" pageWidth="850" pageHeight="1100" math="0" shadow="0">
      <root>
        <mxCell id="0" />
        <mxCell id="1" parent="0" />
        <mxCell id="ypp_mQsESHIYoZZL8vZ4-1" value="SERVER" style="rounded=0;whiteSpace=wrap;html=1;" parent="1" vertex="1">
          <mxGeometry x="490" y="150" width="110" height="130" as="geometry" />
        </mxCell>
        <mxCell id="ypp_mQsESHIYoZZL8vZ4-2" value="APP" style="text;html=1;align=center;verticalAlign=middle;whiteSpace=wrap;rounded=0;" parent="1" vertex="1">
          <mxGeometry x="515" y="250" width="60" height="30" as="geometry" />
        </mxCell>
        <mxCell id="ypp_mQsESHIYoZZL8vZ4-3" value="Express" style="text;html=1;align=center;verticalAlign=middle;whiteSpace=wrap;rounded=0;" parent="1" vertex="1">
          <mxGeometry x="540" y="280" width="60" height="30" as="geometry" />
        </mxCell>
        <mxCell id="ypp_mQsESHIYoZZL8vZ4-4" value="i/p: localhost:3000" style="text;html=1;align=center;verticalAlign=middle;whiteSpace=wrap;rounded=0;" parent="1" vertex="1">
          <mxGeometry x="455" y="70" width="180" height="30" as="geometry" />
        </mxCell>
        <mxCell id="ypp_mQsESHIYoZZL8vZ4-5" value="i/p: 59.87.23.234" style="text;html=1;align=center;verticalAlign=middle;whiteSpace=wrap;rounded=0;" parent="1" vertex="1">
          <mxGeometry x="455" y="100" width="180" height="30" as="geometry" />
        </mxCell>
        <mxCell id="ypp_mQsESHIYoZZL8vZ4-6" value="" style="endArrow=classic;html=1;rounded=0;" parent="1" edge="1">
          <mxGeometry width="50" height="50" relative="1" as="geometry">
            <mxPoint x="600" y="110" as="sourcePoint" />
            <mxPoint x="650" y="110" as="targetPoint" />
          </mxGeometry>
        </mxCell>
        <mxCell id="ypp_mQsESHIYoZZL8vZ4-7" value="api.techcorp.com" style="text;html=1;align=center;verticalAlign=middle;whiteSpace=wrap;rounded=0;" parent="1" vertex="1">
          <mxGeometry x="680" y="90" width="60" height="30" as="geometry" />
        </mxCell>
        <mxCell id="ypp_mQsESHIYoZZL8vZ4-8" value="DB" style="shape=cylinder3;whiteSpace=wrap;html=1;boundedLbl=1;backgroundOutline=1;size=15;" parent="1" vertex="1">
          <mxGeometry x="820" y="340" width="90" height="80" as="geometry" />
        </mxCell>
        <mxCell id="ypp_mQsESHIYoZZL8vZ4-9" value="" style="endArrow=classic;startArrow=classic;html=1;rounded=0;entryX=0;entryY=0.5;entryDx=0;entryDy=0;entryPerimeter=0;" parent="1" target="ypp_mQsESHIYoZZL8vZ4-8" edge="1">
          <mxGeometry width="50" height="50" relative="1" as="geometry">
            <mxPoint x="600" y="260" as="sourcePoint" />
            <mxPoint x="650" y="210" as="targetPoint" />
          </mxGeometry>
        </mxCell>
        <mxCell id="ypp_mQsESHIYoZZL8vZ4-10" value="fetch all employee records" style="rounded=1;whiteSpace=wrap;html=1;" parent="1" vertex="1">
          <mxGeometry x="620" y="140" width="120" height="40" as="geometry" />
        </mxCell>
        <mxCell id="ypp_mQsESHIYoZZL8vZ4-11" value="ADD an employee record" style="rounded=1;whiteSpace=wrap;html=1;" parent="1" vertex="1">
          <mxGeometry x="620" y="190" width="120" height="40" as="geometry" />
        </mxCell>
        <mxCell id="ypp_mQsESHIYoZZL8vZ4-12" value="API" style="text;html=1;align=center;verticalAlign=middle;whiteSpace=wrap;rounded=0;" parent="1" vertex="1">
          <mxGeometry x="750" y="145" width="60" height="30" as="geometry" />
        </mxCell>
        <mxCell id="ypp_mQsESHIYoZZL8vZ4-13" value="API" style="text;html=1;align=center;verticalAlign=middle;whiteSpace=wrap;rounded=0;" parent="1" vertex="1">
          <mxGeometry x="750" y="195" width="60" height="30" as="geometry" />
        </mxCell>
        <mxCell id="ypp_mQsESHIYoZZL8vZ4-14" value="" style="shape=flexArrow;endArrow=classic;html=1;rounded=0;entryX=-0.044;entryY=0.448;entryDx=0;entryDy=0;entryPerimeter=0;exitX=1;exitY=0.5;exitDx=0;exitDy=0;" parent="1" source="ypp_mQsESHIYoZZL8vZ4-15" target="ypp_mQsESHIYoZZL8vZ4-1" edge="1">
          <mxGeometry width="50" height="50" relative="1" as="geometry">
            <mxPoint x="190" y="210" as="sourcePoint" />
            <mxPoint x="180" y="160" as="targetPoint" />
          </mxGeometry>
        </mxCell>
        <mxCell id="ypp_mQsESHIYoZZL8vZ4-15" value="Front Apps" style="rounded=1;whiteSpace=wrap;html=1;" parent="1" vertex="1">
          <mxGeometry x="-10" y="165" width="160" height="85" as="geometry" />
        </mxCell>
        <mxCell id="ypp_mQsESHIYoZZL8vZ4-16" value="React / Angular / JS" style="text;html=1;align=center;verticalAlign=middle;whiteSpace=wrap;rounded=0;" parent="1" vertex="1">
          <mxGeometry x="-10" y="130" width="160" height="30" as="geometry" />
        </mxCell>
        <mxCell id="ypp_mQsESHIYoZZL8vZ4-17" value="&lt;font style=&quot;font-size: 18px;&quot;&gt;&lt;b&gt;-- How to call API using JavaScript&lt;/b&gt;&lt;/font&gt;" style="text;html=1;align=center;verticalAlign=middle;whiteSpace=wrap;rounded=0;" parent="1" vertex="1">
          <mxGeometry x="-70" y="310" width="470" height="30" as="geometry" />
        </mxCell>
        <mxCell id="ypp_mQsESHIYoZZL8vZ4-18" value="Platform : FREE APIs" style="text;html=1;align=center;verticalAlign=middle;whiteSpace=wrap;rounded=0;" parent="1" vertex="1">
          <mxGeometry x="490" y="370" width="140" height="30" as="geometry" />
        </mxCell>
        <mxCell id="ypp_mQsESHIYoZZL8vZ4-19" value="&lt;font style=&quot;font-size: 14px;&quot;&gt;- fetch method&lt;/font&gt;" style="text;html=1;align=center;verticalAlign=middle;whiteSpace=wrap;rounded=0;" parent="1" vertex="1">
          <mxGeometry x="140" y="350" width="120" height="30" as="geometry" />
        </mxCell>
        <mxCell id="ypp_mQsESHIYoZZL8vZ4-20" value="&lt;font style=&quot;font-size: 14px;&quot;&gt;- Promise&lt;/font&gt;" style="text;html=1;align=center;verticalAlign=middle;whiteSpace=wrap;rounded=0;" parent="1" vertex="1">
          <mxGeometry x="130" y="380" width="120" height="30" as="geometry" />
        </mxCell>
        <mxCell id="ypp_mQsESHIYoZZL8vZ4-21" value="&lt;font style=&quot;font-size: 14px;&quot;&gt;- Async Await&lt;/font&gt;" style="text;html=1;align=center;verticalAlign=middle;whiteSpace=wrap;rounded=0;" parent="1" vertex="1">
          <mxGeometry x="140" y="410" width="120" height="30" as="geometry" />
        </mxCell>
        <UserObject label="{&#xa;    id: 1,&#xa;    name: &#39;Leanne Graham&#39;,&#xa;    username: &#39;Bret&#39;,&#xa;    email: &#39;Sincere@april.biz&#39;,&#xa;    address: {&#xa;      street: &#39;Kulas Light&#39;,&#xa;      suite: &#39;Apt. 556&#39;,&#xa;      city: &#39;Gwenborough&#39;,&#xa;      zipcode: &#39;92998-3874&#39;,&#xa;      geo: [Object]&#xa;    },&#xa;    phone: &#39;1-770-736-8031 x56442&#39;,&#xa;    website: &#39;hildegard.org&#39;,&#xa;    company: {&#xa;      name: &#39;Romaguera-Crona&#39;,&#xa;      catchPhrase: &#39;Multi-layered client-server neural-net&#39;,&#xa;      bs: &#39;harness real-time e-markets&#39;&#xa;    }&#xa;  }" link="{&#xa;    id: 1,&#xa;    name: &#39;Leanne Graham&#39;,&#xa;    username: &#39;Bret&#39;,&#xa;    email: &#39;Sincere@april.biz&#39;,&#xa;    address: {&#xa;      street: &#39;Kulas Light&#39;,&#xa;      suite: &#39;Apt. 556&#39;,&#xa;      city: &#39;Gwenborough&#39;,&#xa;      zipcode: &#39;92998-3874&#39;,&#xa;      geo: [Object]&#xa;    },&#xa;    phone: &#39;1-770-736-8031 x56442&#39;,&#xa;    website: &#39;hildegard.org&#39;,&#xa;    company: {&#xa;      name: &#39;Romaguera-Crona&#39;,&#xa;      catchPhrase: &#39;Multi-layered client-server neural-net&#39;,&#xa;      bs: &#39;harness real-time e-markets&#39;&#xa;    }&#xa;  }" id="ypp_mQsESHIYoZZL8vZ4-22">
          <mxCell style="text;whiteSpace=wrap;" parent="1" vertex="1">
            <mxGeometry x="120" y="830" width="350" height="340" as="geometry" />
          </mxCell>
        </UserObject>
        <mxCell id="ypp_mQsESHIYoZZL8vZ4-23" value="" style="shape=flexArrow;endArrow=classic;html=1;rounded=0;" parent="1" edge="1">
          <mxGeometry width="50" height="50" relative="1" as="geometry">
            <mxPoint x="390" y="990" as="sourcePoint" />
            <mxPoint x="530" y="990" as="targetPoint" />
          </mxGeometry>
        </mxCell>
        <mxCell id="ypp_mQsESHIYoZZL8vZ4-24" value="id&lt;div&gt;name&lt;/div&gt;&lt;div&gt;email&lt;/div&gt;&lt;div&gt;city&lt;/div&gt;&lt;div&gt;company_name&lt;/div&gt;" style="text;html=1;align=center;verticalAlign=middle;whiteSpace=wrap;rounded=0;" parent="1" vertex="1">
          <mxGeometry x="575" y="970" width="60" height="30" as="geometry" />
        </mxCell>
        <mxCell id="m2zPtCduQVQqW7Jck69C-1" value="&lt;b&gt;&lt;font style=&quot;font-size: 14px;&quot;&gt;MongoDB&lt;/font&gt;&lt;/b&gt;" style="text;html=1;align=center;verticalAlign=middle;whiteSpace=wrap;rounded=0;" parent="1" vertex="1">
          <mxGeometry x="840" y="420" width="60" height="30" as="geometry" />
        </mxCell>
        <mxCell id="m2zPtCduQVQqW7Jck69C-2" value="DB" style="shape=cylinder3;whiteSpace=wrap;html=1;boundedLbl=1;backgroundOutline=1;size=15;" parent="1" vertex="1">
          <mxGeometry x="825" y="570" width="90" height="80" as="geometry" />
        </mxCell>
        <mxCell id="m2zPtCduQVQqW7Jck69C-3" value="&lt;b&gt;&lt;font style=&quot;font-size: 14px;&quot;&gt;local / cloud&lt;/font&gt;&lt;/b&gt;" style="text;html=1;align=center;verticalAlign=middle;whiteSpace=wrap;rounded=0;" parent="1" vertex="1">
          <mxGeometry x="840" y="660" width="110" height="30" as="geometry" />
        </mxCell>
        <mxCell id="m2zPtCduQVQqW7Jck69C-4" value="Backend App" style="rounded=1;whiteSpace=wrap;html=1;" parent="1" vertex="1">
          <mxGeometry x="480" y="570" width="120" height="60" as="geometry" />
        </mxCell>
        <mxCell id="m2zPtCduQVQqW7Jck69C-5" value="Frontend App" style="rounded=1;whiteSpace=wrap;html=1;" parent="1" vertex="1">
          <mxGeometry x="120" y="570" width="120" height="60" as="geometry" />
        </mxCell>
        <mxCell id="m2zPtCduQVQqW7Jck69C-6" value="" style="endArrow=classic;startArrow=classic;html=1;rounded=0;entryX=0;entryY=0.5;entryDx=0;entryDy=0;entryPerimeter=0;" parent="1" target="m2zPtCduQVQqW7Jck69C-2" edge="1">
          <mxGeometry width="50" height="50" relative="1" as="geometry">
            <mxPoint x="600" y="600" as="sourcePoint" />
            <mxPoint x="650" y="550" as="targetPoint" />
          </mxGeometry>
        </mxCell>
        <mxCell id="m2zPtCduQVQqW7Jck69C-7" value="" style="endArrow=classic;html=1;rounded=0;" parent="1" edge="1">
          <mxGeometry width="50" height="50" relative="1" as="geometry">
            <mxPoint x="210" y="630" as="sourcePoint" />
            <mxPoint x="210" y="725" as="targetPoint" />
          </mxGeometry>
        </mxCell>
        <mxCell id="m2zPtCduQVQqW7Jck69C-8" value="cloud" style="text;html=1;align=center;verticalAlign=middle;whiteSpace=wrap;rounded=0;" parent="1" vertex="1">
          <mxGeometry x="180" y="730" width="60" height="30" as="geometry" />
        </mxCell>
        <mxCell id="m2zPtCduQVQqW7Jck69C-9" value="&lt;b&gt;&lt;font style=&quot;font-size: 14px;&quot;&gt;76.98.233.67&lt;/font&gt;&lt;/b&gt;" style="text;html=1;align=center;verticalAlign=middle;whiteSpace=wrap;rounded=0;" parent="1" vertex="1">
          <mxGeometry x="265" y="730" width="60" height="30" as="geometry" />
        </mxCell>
        <mxCell id="m2zPtCduQVQqW7Jck69C-10" value="&lt;b&gt;&lt;font style=&quot;font-size: 14px;&quot;&gt;jobportal.vercel.app&lt;/font&gt;&lt;/b&gt;" style="text;html=1;align=center;verticalAlign=middle;whiteSpace=wrap;rounded=0;" parent="1" vertex="1">
          <mxGeometry x="280" y="760" width="60" height="30" as="geometry" />
        </mxCell>
        <mxCell id="m2zPtCduQVQqW7Jck69C-11" value="&lt;span style=&quot;font-size: 14px;&quot;&gt;&lt;b&gt;jobportal.com&lt;/b&gt;&lt;/span&gt;" style="text;html=1;align=center;verticalAlign=middle;whiteSpace=wrap;rounded=0;" parent="1" vertex="1">
          <mxGeometry x="280" y="790" width="60" height="30" as="geometry" />
        </mxCell>
        <mxCell id="m2zPtCduQVQqW7Jck69C-12" value="" style="endArrow=classic;html=1;rounded=0;" parent="1" edge="1">
          <mxGeometry width="50" height="50" relative="1" as="geometry">
            <mxPoint x="240" y="600" as="sourcePoint" />
            <mxPoint x="470" y="600" as="targetPoint" />
          </mxGeometry>
        </mxCell>
        <mxCell id="m2zPtCduQVQqW7Jck69C-13" value="" style="endArrow=classic;html=1;rounded=0;" parent="1" edge="1">
          <mxGeometry width="50" height="50" relative="1" as="geometry">
            <mxPoint x="210" y="630" as="sourcePoint" />
            <mxPoint x="210" y="725" as="targetPoint" />
            <Array as="points">
              <mxPoint x="210" y="700" />
            </Array>
          </mxGeometry>
        </mxCell>
        <mxCell id="m2zPtCduQVQqW7Jck69C-14" value="" style="endArrow=classic;html=1;rounded=0;" parent="1" edge="1">
          <mxGeometry width="50" height="50" relative="1" as="geometry">
            <mxPoint x="539.5" y="635" as="sourcePoint" />
            <mxPoint x="539.5" y="730" as="targetPoint" />
            <Array as="points">
              <mxPoint x="539.5" y="705" />
            </Array>
          </mxGeometry>
        </mxCell>
        <mxCell id="m2zPtCduQVQqW7Jck69C-15" value="cloud" style="text;html=1;align=center;verticalAlign=middle;whiteSpace=wrap;rounded=0;" parent="1" vertex="1">
          <mxGeometry x="510" y="730" width="60" height="30" as="geometry" />
        </mxCell>
        <mxCell id="m2zPtCduQVQqW7Jck69C-16" value="&lt;span style=&quot;font-size: 14px;&quot;&gt;&lt;b&gt;api.jobportal.com&lt;/b&gt;&lt;/span&gt;" style="text;html=1;align=center;verticalAlign=middle;whiteSpace=wrap;rounded=0;" parent="1" vertex="1">
          <mxGeometry x="530" y="770" width="60" height="30" as="geometry" />
        </mxCell>
        <mxCell id="m2zPtCduQVQqW7Jck69C-17" value="" style="endArrow=classic;html=1;rounded=0;" parent="1" edge="1">
          <mxGeometry width="50" height="50" relative="1" as="geometry">
            <mxPoint x="850" y="650" as="sourcePoint" />
            <mxPoint x="850" y="720" as="targetPoint" />
            <Array as="points">
              <mxPoint x="850" y="720" />
            </Array>
          </mxGeometry>
        </mxCell>
        <mxCell id="m2zPtCduQVQqW7Jck69C-18" value="cloud" style="text;html=1;align=center;verticalAlign=middle;whiteSpace=wrap;rounded=0;" parent="1" vertex="1">
          <mxGeometry x="825" y="730" width="60" height="30" as="geometry" />
        </mxCell>
        <mxCell id="m2zPtCduQVQqW7Jck69C-19" value="&lt;font style=&quot;font-size: 18px;&quot;&gt;atlas&lt;/font&gt;" style="text;html=1;align=center;verticalAlign=middle;whiteSpace=wrap;rounded=0;" parent="1" vertex="1">
          <mxGeometry x="825" y="770" width="60" height="30" as="geometry" />
        </mxCell>
        <mxCell id="m2zPtCduQVQqW7Jck69C-20" value="&lt;font style=&quot;font-size: 18px;&quot;&gt;training-cluster&lt;/font&gt;" style="text;html=1;align=center;verticalAlign=middle;whiteSpace=wrap;rounded=0;" parent="1" vertex="1">
          <mxGeometry x="265" y="1190" width="135" height="30" as="geometry" />
        </mxCell>
        <mxCell id="m2zPtCduQVQqW7Jck69C-21" value="&lt;font style=&quot;font-size: 18px;&quot;&gt;jobportal_trainingdb&lt;/font&gt;" style="text;html=1;align=center;verticalAlign=middle;whiteSpace=wrap;rounded=0;" parent="1" vertex="1">
          <mxGeometry x="370" y="1230" width="135" height="30" as="geometry" />
        </mxCell>
        <mxCell id="m2zPtCduQVQqW7Jck69C-22" value="&lt;font style=&quot;font-size: 18px;&quot;&gt;&lt;b&gt;mongoose: help us connect to DB programatically and let us perform DB ops&lt;/b&gt;&lt;/font&gt;" style="text;html=1;align=center;verticalAlign=middle;whiteSpace=wrap;rounded=0;" parent="1" vertex="1">
          <mxGeometry x="110" y="1290" width="765" height="30" as="geometry" />
        </mxCell>
        <mxCell id="m2zPtCduQVQqW7Jck69C-23" value="&lt;font style=&quot;font-size: 18px;&quot;&gt;DB Ops&lt;/font&gt;" style="text;html=1;align=center;verticalAlign=middle;whiteSpace=wrap;rounded=0;" parent="1" vertex="1">
          <mxGeometry x="60" y="1390" width="135" height="30" as="geometry" />
        </mxCell>
        <mxCell id="m2zPtCduQVQqW7Jck69C-24" value="&lt;font style=&quot;font-size: 18px;&quot;&gt;- insert the record in DB&lt;/font&gt;" style="text;html=1;align=center;verticalAlign=middle;whiteSpace=wrap;rounded=0;" parent="1" vertex="1">
          <mxGeometry x="130" y="1430" width="217.5" height="30" as="geometry" />
        </mxCell>
        <mxCell id="m2zPtCduQVQqW7Jck69C-25" value="&lt;font style=&quot;font-size: 18px;&quot;&gt;- fetch all records from DB&lt;/font&gt;" style="text;html=1;align=center;verticalAlign=middle;whiteSpace=wrap;rounded=0;" parent="1" vertex="1">
          <mxGeometry x="140" y="1470" width="217.5" height="30" as="geometry" />
        </mxCell>
        <mxCell id="m2zPtCduQVQqW7Jck69C-26" value="&lt;span style=&quot;font-size: 18px;&quot;&gt;addEmployee.js&lt;/span&gt;" style="text;html=1;align=center;verticalAlign=middle;whiteSpace=wrap;rounded=0;" parent="1" vertex="1">
          <mxGeometry x="412.5" y="1430" width="217.5" height="30" as="geometry" />
        </mxCell>
        <mxCell id="m2zPtCduQVQqW7Jck69C-27" value="&lt;span style=&quot;font-size: 18px;&quot;&gt;fetchEmployee.js&lt;/span&gt;" style="text;html=1;align=center;verticalAlign=middle;whiteSpace=wrap;rounded=0;" parent="1" vertex="1">
          <mxGeometry x="412.5" y="1470" width="217.5" height="30" as="geometry" />
        </mxCell>
        <mxCell id="m2zPtCduQVQqW7Jck69C-28" value="&lt;span style=&quot;font-size: 18px;&quot;&gt;addEmployee.js&lt;/span&gt;" style="text;html=1;align=center;verticalAlign=middle;whiteSpace=wrap;rounded=0;" parent="1" vertex="1">
          <mxGeometry x="22.5" y="1560" width="217.5" height="30" as="geometry" />
        </mxCell>
        <mxCell id="m2zPtCduQVQqW7Jck69C-29" value="&lt;span style=&quot;font-size: 18px;&quot;&gt;dbconfig.js&lt;/span&gt;" style="text;html=1;align=center;verticalAlign=middle;whiteSpace=wrap;rounded=0;" parent="1" vertex="1">
          <mxGeometry x="730" y="1370" width="217.5" height="30" as="geometry" />
        </mxCell>
        <mxCell id="m2zPtCduQVQqW7Jck69C-30" value="&lt;div style=&quot;color: rgb(204, 204, 204); background-color: rgb(31, 31, 31); font-family: Consolas, &amp;quot;Courier New&amp;quot;, monospace; font-weight: normal; font-size: 14px; line-height: 19px; white-space: pre;&quot;&gt;&lt;div&gt;&lt;span style=&quot;color: rgb(220, 220, 170);&quot;&gt;dbConnect()&lt;/span&gt;&lt;/div&gt;&lt;/div&gt;" style="text;whiteSpace=wrap;html=1;" parent="1" vertex="1">
          <mxGeometry x="820" y="1410" width="100" height="40" as="geometry" />
        </mxCell>
        <mxCell id="m2zPtCduQVQqW7Jck69C-31" value="" style="endArrow=classic;html=1;rounded=0;" parent="1" edge="1">
          <mxGeometry width="50" height="50" relative="1" as="geometry">
            <mxPoint x="813.75" y="1430" as="sourcePoint" />
            <mxPoint x="200" y="1610" as="targetPoint" />
          </mxGeometry>
        </mxCell>
        <mxCell id="m2zPtCduQVQqW7Jck69C-32" value="" style="rounded=0;whiteSpace=wrap;html=1;" parent="1" vertex="1">
          <mxGeometry x="50" y="1640" width="200" height="110" as="geometry" />
        </mxCell>
        <mxCell id="m2zPtCduQVQqW7Jck69C-33" value="&lt;b&gt;export&lt;/b&gt;" style="text;html=1;align=center;verticalAlign=middle;whiteSpace=wrap;rounded=0;" parent="1" vertex="1">
          <mxGeometry x="835" y="1460" width="60" height="30" as="geometry" />
        </mxCell>
        <mxCell id="m2zPtCduQVQqW7Jck69C-34" value="&lt;b&gt;import&lt;/b&gt;" style="text;html=1;align=center;verticalAlign=middle;whiteSpace=wrap;rounded=0;" parent="1" vertex="1">
          <mxGeometry x="90" y="1600" width="60" height="30" as="geometry" />
        </mxCell>
        <mxCell id="m2zPtCduQVQqW7Jck69C-35" value="&lt;div style=&quot;color: #cccccc;background-color: #1f1f1f;font-family: Consolas, &#39;Courier New&#39;, monospace;font-weight: normal;font-size: 14px;line-height: 19px;white-space: pre;&quot;&gt;&lt;div&gt;&lt;span style=&quot;color: #4fc1ff;&quot;&gt;module&lt;/span&gt;&lt;span style=&quot;color: #cccccc;&quot;&gt;.&lt;/span&gt;&lt;span style=&quot;color: #dcdcaa;&quot;&gt;exports&lt;/span&gt;&lt;span style=&quot;color: #cccccc;&quot;&gt; &lt;/span&gt;&lt;span style=&quot;color: #d4d4d4;&quot;&gt;=&lt;/span&gt;&lt;span style=&quot;color: #cccccc;&quot;&gt; &lt;/span&gt;&lt;span style=&quot;color: #dcdcaa;&quot;&gt;dbConnect&lt;/span&gt;&lt;span style=&quot;color: #cccccc;&quot;&gt;;&lt;/span&gt;&lt;/div&gt;&lt;/div&gt;" style="text;whiteSpace=wrap;html=1;" parent="1" vertex="1">
          <mxGeometry x="760" y="1500" width="240" height="40" as="geometry" />
        </mxCell>
        <mxCell id="m2zPtCduQVQqW7Jck69C-36" value="&lt;div style=&quot;color: #cccccc;background-color: #1f1f1f;font-family: Consolas, &#39;Courier New&#39;, monospace;font-weight: normal;font-size: 14px;line-height: 19px;white-space: pre;&quot;&gt;&lt;div&gt;&lt;span style=&quot;color: #569cd6;&quot;&gt;const&lt;/span&gt;&lt;span style=&quot;color: #cccccc;&quot;&gt; &lt;/span&gt;&lt;span style=&quot;color: #dcdcaa;&quot;&gt;dbConnect&lt;/span&gt;&lt;span style=&quot;color: #cccccc;&quot;&gt; &lt;/span&gt;&lt;span style=&quot;color: #d4d4d4;&quot;&gt;=&lt;/span&gt;&lt;span style=&quot;color: #cccccc;&quot;&gt; &lt;/span&gt;&lt;span style=&quot;color: #dcdcaa;&quot;&gt;require&lt;/span&gt;&lt;span style=&quot;color: #cccccc;&quot;&gt;(&lt;/span&gt;&lt;span style=&quot;color: #ce9178;&quot;&gt;&#39;./dbconfig&#39;&lt;/span&gt;&lt;span style=&quot;color: #cccccc;&quot;&gt;); &lt;/span&gt;&lt;/div&gt;&lt;/div&gt;" style="text;whiteSpace=wrap;html=1;" parent="1" vertex="1">
          <mxGeometry x="165" y="1610" width="350" height="40" as="geometry" />
        </mxCell>
        <mxCell id="m2zPtCduQVQqW7Jck69C-37" value="&lt;span style=&quot;font-size: 18px;&quot;&gt;fetchEmployee.js&lt;/span&gt;" style="text;html=1;align=center;verticalAlign=middle;whiteSpace=wrap;rounded=0;" parent="1" vertex="1">
          <mxGeometry x="425" y="1700" width="217.5" height="30" as="geometry" />
        </mxCell>
        <mxCell id="m2zPtCduQVQqW7Jck69C-38" value="" style="rounded=0;whiteSpace=wrap;html=1;" parent="1" vertex="1">
          <mxGeometry x="435" y="1760" width="200" height="110" as="geometry" />
        </mxCell>
        <mxCell id="m2zPtCduQVQqW7Jck69C-39" value="" style="endArrow=classic;html=1;rounded=0;" parent="1" edge="1">
          <mxGeometry width="50" height="50" relative="1" as="geometry">
            <mxPoint x="810" y="1490" as="sourcePoint" />
            <mxPoint x="610" y="1740" as="targetPoint" />
          </mxGeometry>
        </mxCell>
        <mxCell id="m2zPtCduQVQqW7Jck69C-40" value="&lt;div style=&quot;color: #cccccc;background-color: #1f1f1f;font-family: Consolas, &#39;Courier New&#39;, monospace;font-weight: normal;font-size: 14px;line-height: 19px;white-space: pre;&quot;&gt;&lt;div&gt;&lt;span style=&quot;color: #569cd6;&quot;&gt;const&lt;/span&gt;&lt;span style=&quot;color: #cccccc;&quot;&gt; &lt;/span&gt;&lt;span style=&quot;color: #dcdcaa;&quot;&gt;dbConnect&lt;/span&gt;&lt;span style=&quot;color: #cccccc;&quot;&gt; &lt;/span&gt;&lt;span style=&quot;color: #d4d4d4;&quot;&gt;=&lt;/span&gt;&lt;span style=&quot;color: #cccccc;&quot;&gt; &lt;/span&gt;&lt;span style=&quot;color: #dcdcaa;&quot;&gt;require&lt;/span&gt;&lt;span style=&quot;color: #cccccc;&quot;&gt;(&lt;/span&gt;&lt;span style=&quot;color: #ce9178;&quot;&gt;&#39;./dbconfig&#39;&lt;/span&gt;&lt;span style=&quot;color: #cccccc;&quot;&gt;); &lt;/span&gt;&lt;/div&gt;&lt;/div&gt;" style="text;whiteSpace=wrap;html=1;" parent="1" vertex="1">
          <mxGeometry x="630" y="1720" width="350" height="40" as="geometry" />
        </mxCell>
        <mxCell id="m2zPtCduQVQqW7Jck69C-41" value="" style="rounded=0;whiteSpace=wrap;html=1;" parent="1" vertex="1">
          <mxGeometry x="35" y="1950" width="220" height="190" as="geometry" />
        </mxCell>
        <mxCell id="m2zPtCduQVQqW7Jck69C-42" value="table/collection" style="text;html=1;align=center;verticalAlign=middle;whiteSpace=wrap;rounded=0;" parent="1" vertex="1">
          <mxGeometry x="45" y="1920" width="60" height="30" as="geometry" />
        </mxCell>
        <mxCell id="m2zPtCduQVQqW7Jck69C-43" value="id" style="text;html=1;align=center;verticalAlign=middle;whiteSpace=wrap;rounded=0;" parent="1" vertex="1">
          <mxGeometry x="35" y="1960" width="60" height="30" as="geometry" />
        </mxCell>
        <mxCell id="m2zPtCduQVQqW7Jck69C-44" value="fname" style="text;html=1;align=center;verticalAlign=middle;whiteSpace=wrap;rounded=0;" parent="1" vertex="1">
          <mxGeometry x="35" y="1990" width="60" height="30" as="geometry" />
        </mxCell>
        <mxCell id="m2zPtCduQVQqW7Jck69C-45" value="employee" style="text;html=1;align=center;verticalAlign=middle;whiteSpace=wrap;rounded=0;" parent="1" vertex="1">
          <mxGeometry x="145" y="1920" width="60" height="30" as="geometry" />
        </mxCell>
        <mxCell id="m2zPtCduQVQqW7Jck69C-46" value="city" style="text;html=1;align=center;verticalAlign=middle;whiteSpace=wrap;rounded=0;" parent="1" vertex="1">
          <mxGeometry x="35" y="2050" width="60" height="30" as="geometry" />
        </mxCell>
        <mxCell id="m2zPtCduQVQqW7Jck69C-48" value="salary" style="text;html=1;align=center;verticalAlign=middle;whiteSpace=wrap;rounded=0;" parent="1" vertex="1">
          <mxGeometry x="35" y="2080" width="60" height="30" as="geometry" />
        </mxCell>
        <mxCell id="m2zPtCduQVQqW7Jck69C-49" value="lname" style="text;html=1;align=center;verticalAlign=middle;whiteSpace=wrap;rounded=0;" parent="1" vertex="1">
          <mxGeometry x="35" y="2020" width="60" height="30" as="geometry" />
        </mxCell>
        <mxCell id="m2zPtCduQVQqW7Jck69C-50" value="" style="shape=flexArrow;endArrow=classic;html=1;rounded=0;" parent="1" edge="1">
          <mxGeometry width="50" height="50" relative="1" as="geometry">
            <mxPoint x="255" y="2060" as="sourcePoint" />
            <mxPoint x="505" y="2060" as="targetPoint" />
          </mxGeometry>
        </mxCell>
        <mxCell id="m2zPtCduQVQqW7Jck69C-51" value="mongoose Schema" style="text;html=1;align=center;verticalAlign=middle;whiteSpace=wrap;rounded=0;" parent="1" vertex="1">
          <mxGeometry x="300" y="2010" width="140" height="30" as="geometry" />
        </mxCell>
        <mxCell id="m2zPtCduQVQqW7Jck69C-52" value="Model" style="text;html=1;align=center;verticalAlign=middle;whiteSpace=wrap;rounded=0;" parent="1" vertex="1">
          <mxGeometry x="115" y="1870" width="60" height="30" as="geometry" />
        </mxCell>
        <mxCell id="m2zPtCduQVQqW7Jck69C-53" value="&lt;div style=&quot;color: #cccccc;background-color: #1f1f1f;font-family: Consolas, &#39;Courier New&#39;, monospace;font-weight: normal;font-size: 14px;line-height: 19px;white-space: pre;&quot;&gt;&lt;div&gt;&lt;span style=&quot;color: #569cd6;&quot;&gt;const&lt;/span&gt;&lt;span style=&quot;color: #cccccc;&quot;&gt; &lt;/span&gt;&lt;span style=&quot;color: #4ec9b0;&quot;&gt;mongoose&lt;/span&gt;&lt;span style=&quot;color: #cccccc;&quot;&gt; &lt;/span&gt;&lt;span style=&quot;color: #d4d4d4;&quot;&gt;=&lt;/span&gt;&lt;span style=&quot;color: #cccccc;&quot;&gt; &lt;/span&gt;&lt;span style=&quot;color: #dcdcaa;&quot;&gt;require&lt;/span&gt;&lt;span style=&quot;color: #cccccc;&quot;&gt;(&lt;/span&gt;&lt;span style=&quot;color: #ce9178;&quot;&gt;&#39;mongoose&#39;&lt;/span&gt;&lt;span style=&quot;color: #cccccc;&quot;&gt;)&lt;/span&gt;&lt;/div&gt;&lt;br&gt;&lt;div&gt;&lt;span style=&quot;color: #569cd6;&quot;&gt;const&lt;/span&gt;&lt;span style=&quot;color: #cccccc;&quot;&gt; &lt;/span&gt;&lt;span style=&quot;color: #4fc1ff;&quot;&gt;employeeSchema&lt;/span&gt;&lt;span style=&quot;color: #cccccc;&quot;&gt; &lt;/span&gt;&lt;span style=&quot;color: #d4d4d4;&quot;&gt;=&lt;/span&gt;&lt;span style=&quot;color: #cccccc;&quot;&gt; &lt;/span&gt;&lt;span style=&quot;color: #4ec9b0;&quot;&gt;mongoose&lt;/span&gt;&lt;span style=&quot;color: #cccccc;&quot;&gt;.&lt;/span&gt;&lt;span style=&quot;color: #4ec9b0;&quot;&gt;Schema&lt;/span&gt;&lt;span style=&quot;color: #cccccc;&quot;&gt;({&lt;/span&gt;&lt;/div&gt;&lt;div&gt;&lt;span style=&quot;color: #cccccc;&quot;&gt;&amp;nbsp; &amp;nbsp; &lt;/span&gt;&lt;span style=&quot;color: #9cdcfe;&quot;&gt;fname&lt;/span&gt;&lt;span style=&quot;color: #9cdcfe;&quot;&gt;:&lt;/span&gt;&lt;span style=&quot;color: #cccccc;&quot;&gt; {&lt;/span&gt;&lt;span style=&quot;color: #4ec9b0;&quot;&gt;type&lt;/span&gt;&lt;span style=&quot;color: #9cdcfe;&quot;&gt;:&lt;/span&gt;&lt;span style=&quot;color: #cccccc;&quot;&gt; &lt;/span&gt;&lt;span style=&quot;color: #4ec9b0;&quot;&gt;String&lt;/span&gt;&lt;span style=&quot;color: #cccccc;&quot;&gt;, &lt;/span&gt;&lt;span style=&quot;color: #9cdcfe;&quot;&gt;required&lt;/span&gt;&lt;span style=&quot;color: #9cdcfe;&quot;&gt;:&lt;/span&gt;&lt;span style=&quot;color: #cccccc;&quot;&gt; &lt;/span&gt;&lt;span style=&quot;color: #569cd6;&quot;&gt;true&lt;/span&gt;&lt;span style=&quot;color: #cccccc;&quot;&gt;},&lt;/span&gt;&lt;/div&gt;&lt;div&gt;&lt;span style=&quot;color: #cccccc;&quot;&gt;&amp;nbsp; &amp;nbsp; &lt;/span&gt;&lt;span style=&quot;color: #9cdcfe;&quot;&gt;lname&lt;/span&gt;&lt;span style=&quot;color: #9cdcfe;&quot;&gt;:&lt;/span&gt;&lt;span style=&quot;color: #cccccc;&quot;&gt; {&lt;/span&gt;&lt;span style=&quot;color: #4ec9b0;&quot;&gt;type&lt;/span&gt;&lt;span style=&quot;color: #9cdcfe;&quot;&gt;:&lt;/span&gt;&lt;span style=&quot;color: #cccccc;&quot;&gt; &lt;/span&gt;&lt;span style=&quot;color: #4ec9b0;&quot;&gt;String&lt;/span&gt;&lt;span style=&quot;color: #cccccc;&quot;&gt;, &lt;/span&gt;&lt;span style=&quot;color: #9cdcfe;&quot;&gt;required&lt;/span&gt;&lt;span style=&quot;color: #9cdcfe;&quot;&gt;:&lt;/span&gt;&lt;span style=&quot;color: #cccccc;&quot;&gt; &lt;/span&gt;&lt;span style=&quot;color: #569cd6;&quot;&gt;true&lt;/span&gt;&lt;span style=&quot;color: #cccccc;&quot;&gt;},&lt;/span&gt;&lt;/div&gt;&lt;div&gt;&lt;span style=&quot;color: #cccccc;&quot;&gt;&amp;nbsp; &amp;nbsp; &lt;/span&gt;&lt;span style=&quot;color: #9cdcfe;&quot;&gt;city&lt;/span&gt;&lt;span style=&quot;color: #9cdcfe;&quot;&gt;:&lt;/span&gt;&lt;span style=&quot;color: #cccccc;&quot;&gt; {&lt;/span&gt;&lt;span style=&quot;color: #4ec9b0;&quot;&gt;type&lt;/span&gt;&lt;span style=&quot;color: #9cdcfe;&quot;&gt;:&lt;/span&gt;&lt;span style=&quot;color: #cccccc;&quot;&gt; &lt;/span&gt;&lt;span style=&quot;color: #4ec9b0;&quot;&gt;String&lt;/span&gt;&lt;span style=&quot;color: #cccccc;&quot;&gt;},&lt;/span&gt;&lt;/div&gt;&lt;div&gt;&lt;span style=&quot;color: #cccccc;&quot;&gt;&amp;nbsp; &amp;nbsp; &lt;/span&gt;&lt;span style=&quot;color: #9cdcfe;&quot;&gt;salary&lt;/span&gt;&lt;span style=&quot;color: #9cdcfe;&quot;&gt;:&lt;/span&gt;&lt;span style=&quot;color: #cccccc;&quot;&gt; {&lt;/span&gt;&lt;span style=&quot;color: #4ec9b0;&quot;&gt;type&lt;/span&gt;&lt;span style=&quot;color: #9cdcfe;&quot;&gt;:&lt;/span&gt;&lt;span style=&quot;color: #cccccc;&quot;&gt; &lt;/span&gt;&lt;span style=&quot;color: #4ec9b0;&quot;&gt;Number&lt;/span&gt;&lt;span style=&quot;color: #cccccc;&quot;&gt;,&lt;/span&gt;&lt;span style=&quot;color: #9cdcfe;&quot;&gt;default&lt;/span&gt;&lt;span style=&quot;color: #9cdcfe;&quot;&gt;:&lt;/span&gt;&lt;span style=&quot;color: #cccccc;&quot;&gt; &lt;/span&gt;&lt;span style=&quot;color: #b5cea8;&quot;&gt;0&lt;/span&gt;&lt;span style=&quot;color: #cccccc;&quot;&gt;},&lt;/span&gt;&lt;/div&gt;&lt;div&gt;&lt;span style=&quot;color: #cccccc;&quot;&gt;})&lt;/span&gt;&lt;/div&gt;&lt;br&gt;&lt;div&gt;&lt;span style=&quot;color: #6a9955;&quot;&gt;//tell mongoose that this is a model so it create a table for u &lt;/span&gt;&lt;/div&gt;&lt;div&gt;&lt;span style=&quot;color: #569cd6;&quot;&gt;const&lt;/span&gt;&lt;span style=&quot;color: #cccccc;&quot;&gt; &lt;/span&gt;&lt;span style=&quot;color: #4fc1ff;&quot;&gt;Employee&lt;/span&gt;&lt;span style=&quot;color: #cccccc;&quot;&gt; &lt;/span&gt;&lt;span style=&quot;color: #d4d4d4;&quot;&gt;=&lt;/span&gt;&lt;span style=&quot;color: #cccccc;&quot;&gt; &lt;/span&gt;&lt;span style=&quot;color: #4ec9b0;&quot;&gt;mongoose&lt;/span&gt;&lt;span style=&quot;color: #cccccc;&quot;&gt;.&lt;/span&gt;&lt;span style=&quot;color: #dcdcaa;&quot;&gt;model&lt;/span&gt;&lt;span style=&quot;color: #cccccc;&quot;&gt;(&lt;/span&gt;&lt;span style=&quot;color: #ce9178;&quot;&gt;&quot;Employee&quot;&lt;/span&gt;&lt;span style=&quot;color: #cccccc;&quot;&gt;, &lt;/span&gt;&lt;span style=&quot;color: #4fc1ff;&quot;&gt;employeeSchema&lt;/span&gt;&lt;span style=&quot;color: #cccccc;&quot;&gt;); &lt;/span&gt;&lt;/div&gt;&lt;div&gt;&lt;span style=&quot;color: #4fc1ff;&quot;&gt;module&lt;/span&gt;&lt;span style=&quot;color: #cccccc;&quot;&gt;.&lt;/span&gt;&lt;span style=&quot;color: #4fc1ff;&quot;&gt;exports&lt;/span&gt;&lt;span style=&quot;color: #cccccc;&quot;&gt; &lt;/span&gt;&lt;span style=&quot;color: #d4d4d4;&quot;&gt;=&lt;/span&gt;&lt;span style=&quot;color: #cccccc;&quot;&gt; &lt;/span&gt;&lt;span style=&quot;color: #4fc1ff;&quot;&gt;Employee&lt;/span&gt;&lt;span style=&quot;color: #cccccc;&quot;&gt;;&lt;/span&gt;&lt;/div&gt;&lt;/div&gt;" style="text;whiteSpace=wrap;html=1;" parent="1" vertex="1">
          <mxGeometry x="540" y="1910" width="530" height="250" as="geometry" />
        </mxCell>
        <mxCell id="3wHjFGMiaJZGc4a248XV-1" value="&lt;font style=&quot;font-size: 18px;&quot;&gt;fetchbyprop&lt;/font&gt;" style="text;html=1;align=center;verticalAlign=middle;whiteSpace=wrap;rounded=0;" vertex="1" parent="1">
          <mxGeometry x="35" y="2230" width="60" height="30" as="geometry" />
        </mxCell>
      </root>
    </mxGraphModel>
  </diagram>
</mxfile>
